<?xml version="1.0" standalone="no"?>
<!DOCTYPE svg PUBLIC "-//W3C//DTD SVG 1.1//EN" "http://www.w3.org/Graphics/SVG/1.1/DTD/svg11.dtd" >
<svg>
<metadata>
Created by FontForge 20110222 at Mon Mar  7 08:08:47 2011
 By www-data
Copyright(c)1999 E'XE'YE'LA@E'^E'JE'V All Rights Reserved.
</metadata>
<defs>
<font id="Legothick" horiz-adv-x="537" >
  <font-face 
    font-family="Legothick"
    font-weight="400"
    font-stretch="normal"
    units-per-em="1000"
    panose-1="0 0 1 0 0 0 0 0 0 0"
    ascent="800"
    descent="-200"
    cap-height="749"
    bbox="-45 -124 683 751"
    underline-thickness="20"
    underline-position="-123"
    unicode-range="U+0020-007E"
  />
    <missing-glyph />
    <glyph glyph-name="space" unicode=" " horiz-adv-x="500" 
 />
    <glyph glyph-name="exclam" unicode="!" horiz-adv-x="283" 
d="M247 325l80 300q4 12 4 22q0 52 -59 52q-30 0 -56 -18q-29 -21 -39 -56l-80 -300q-3 -12 -3 -22q0 -52 58 -52q31 0 58.5 19.5t36.5 54.5zM193 125q4 12 4 22q0 52 -59 52q-30 0 -56 -18q-29 -21 -38 -56q-4 -12 -4 -22q0 -52 59 -52q30 0 57.5 19.5t36.5 54.5zM297 325
q-16 -61 -91 -100q41 -30 41 -74q0 -12 -3 -26q-16 -58 -64 -93q-44 -31 -95 -31q-50 0 -77 31q-30 35 -15 93q17 61 92 100q-42 30 -42 74q0 12 4 26l80 300q16 58 64 93q44 31 95 31q50 0 77 -31q30 -35 14 -93z" />
    <glyph glyph-name="quotedbl" unicode="&#x22;" horiz-adv-x="534" 
d="M557 550l20 75q3 10 3 19q0 25 -16 40.5t-41 15.5q-32 0 -59.5 -22t-36.5 -53q-14 -55 -44 -72.5t-39 -52.5q-3 -12 -3 -23q0 -51 61 -51q46 0 90 32q50 35 65 92zM357 550l20 75q3 9 3 18q0 25 -17.5 41.5t-41.5 16.5q-73 0 -104 -115q-4 -16 -17 -21
q-26 -12 -42.5 -36.5t-16.5 -51.5q0 -51 61 -51q46 0 90 32q50 35 65 92zM627 625l-20 -75q-19 -73 -85.5 -125t-131.5 -52q-55 0 -84 42q-56 -39 -117 -39q-44 0 -72 22.5t-28 64.5q0 17 5 37q17 62 76 98q19 72 68 114q43 39 92 39q67 0 89 -66q56 65 121 65
q39 0 65.5 -25.5t26.5 -66.5q0 -16 -5 -33z" />
    <glyph glyph-name="numbersign" unicode="#" horiz-adv-x="584" 
d="M497 374l-3 1q1 1 3 1q38 5 62 34t24 61q0 45 -46 53q-10 2 -9 13q3 30 -14 46.5t-43 16.5q-62 0 -90 -60q-2 -4 -3 -4v3q2 29 -14.5 45t-42.5 16q-64 0 -91 -63q-5 -11 -15 -13q-38 -5 -62.5 -34t-24.5 -61q0 -41 40 -52q4 -1 4 -2q-1 -1 -5 -2q-36 -9 -57.5 -36.5
t-21.5 -57.5q0 -46 46 -53q10 -2 9 -12q-3 -30 13.5 -47t43.5 -17q62 0 90 60q1 3 2 4q1 -1 1 -4q-2 -29 14.5 -44.5t42.5 -15.5q65 0 91 64q5 10 15 12q38 5 62.5 34t24.5 61q0 45 -46 53zM578 566q58 -19 58 -82q0 -58 -52 -109q10 -20 10 -45q0 -46 -32 -88
q-35 -43 -87 -58q-22 -39 -60 -61.5t-76 -22.5q-43 0 -70 26q-42 -26 -84 -26q-39 0 -64.5 22.5t-27.5 61.5q-58 19 -58 83q0 59 51 108q-10 20 -10 43q0 48 34.5 92t86.5 58q22 39 59 60.5t76 21.5q42 0 70 -26q42 26 84 26q39 0 64.5 -22.5t27.5 -61.5z" />
    <glyph glyph-name="dollar" unicode="$" horiz-adv-x="532" 
d="M305 96q-32 -46 -82 -46q-49 0 -56 46q-1 6 -27 18q-33 15 -48 28q-26 22 -26 55q0 13 4 28q9 34 39 55q27 20 57 20q47 0 56 -44q12 -8 24 -8q15 0 26 11.5t11 23.5q0 17 -20 17q-123 1 -123 136q0 18 3 39q56 134 154 165q12 4 22 18q32 42 78 42q47 0 56 -43
q3 -11 13 -13q87 -21 87 -99q0 -12 -2 -20q-9 -34 -37.5 -54.5t-58.5 -20.5q-47 0 -56 44q-12 8 -34 8q-47 0 -67 -27q4 -18 22 -23q9 -2 38 -2q123 -1 123 -136q0 -18 -3 -39q-30 -72 -71 -113q-27 -26 -62.5 -42.5t-39.5 -23.5zM282 682l1 1l-3 -3zM501 688v-1v1v0z
M513 419q91 49 91 134q0 46 -29 84t-75 52q-21 61 -90 61q-37 0 -63 -15q-17 -9 -36 -28.5t-28 -23.5l2 2l-4 -3q-89 -34 -142 -111q-50 -73 -50 -154q0 -47 19 -86q-69 -37 -88 -106q-3 -14 -3 -31q0 -102 104 -133q21 -61 89 -61q73 0 126 66l1 1q89 32 143 110
q52 74 52 156q0 47 -19 86z" />
    <glyph glyph-name="percent" unicode="%" horiz-adv-x="533" 
d="M320 225q10 35 39 56q26 18 56 18q58 0 58 -52q0 -10 -3 -22q-9 -35 -36.5 -54.5t-58.5 -19.5q-58 0 -58 52q0 10 3 22zM190 177q-30 -27 -62 -27q-26 0 -43.5 16.5t-17.5 41.5q0 34 34 65l330 300q31 28 63 28q25 0 42 -17t17 -42q0 -35 -33 -65zM151 525q9 35 38 56
q26 18 57 18q58 0 58 -52q0 -10 -3 -22q-10 -35 -37.5 -54.5t-57.5 -19.5q-58 0 -58 52q0 10 3 22zM440 345l110 100q55 50 55 108q0 41 -28.5 70t-70.5 29q-53 0 -105 -47l-55 -50q-1 95 -88 95q-49 0 -94 -34q-49 -36 -63 -91q-5 -16 -5 -30q0 -37 23.5 -61t61.5 -29
l-110 -100q-57 -51 -57 -108q0 -41 29.5 -69t72.5 -28q54 0 104 45l55 50q1 -95 88 -95q49 0 94 34q49 36 63 91q4 16 4 30q0 37 -23 61t-61 29z" />
    <glyph glyph-name="ampersand" unicode="&#x26;" horiz-adv-x="583" 
d="M466 68l-7 -6q-52 -62 -123 -62q-61 0 -86 50h-152q-42 0 -69 26t-27 67q0 15 5 32l27 100q17 63 45 119q-7 23 2 56l26 100q18 67 73 123q76 78 182 78q107 0 141 -78q13 -30 13 -69q0 -30 -6 -55q57 -38 57 -121q0 -28 -6 -53l-28 -102q28 -27 28 -67q0 -42 -29 -82
q-26 -36 -66 -56zM449 109q25 11 43 35t18 50q0 31 -24 46q-10 4 -7 17l31 118q7 23 7 43q0 66 -57 96q-9 1 -7 11l7 25q5 19 5 39q0 30 -10 55q-25 57 -106 57t-136 -57q-13 -14 -23 -28q-24 -34 -33 -66l-26 -100q-7 -24 -1 -35q1 -23 -2 -25q-26 -48 -44 -115l-27 -100
q-3 -10 -3 -19q0 -25 16 -40.5t42 -15.5h169q13 -1 13 -12q11 -38 54 -38q45 0 77 40q10 13 24 19zM347 325l-15 -57q-5 -18 -23 -18h-64q-18 0 -11 25q27 101 77 101q16 0 27 -11.5t11 -28.5q0 -5 -2 -11z" />
    <glyph glyph-name="quotesingle" unicode="'" horiz-adv-x="359" 
d="M381 547q-14 -54 -70 -89q-51 -33 -104 -33q-66 0 -66 52q0 11 3 23q8 28 32 49t53 25q12 2 15 14l10 37q9 35 38 56q26 18 56 18q58 0 58 -52q0 -10 -4 -22zM201 615q-85 -33 -107 -115q-5 -20 -5 -38q0 -42 29 -64t76 -22q72 0 140 44q75 48 97 125v2l21 78q6 19 6 36
q0 41 -29 66q-27 22 -69 22q-50 0 -93 -33q-48 -36 -66 -101z" />
    <glyph glyph-name="parenleft" unicode="(" horiz-adv-x="432" 
d="M198 50q-120 0 -120 135q0 69 32 190q42 154 93 228q67 97 170 97q52 0 72 -6q36 -10 36 -44q0 -11 -4 -25q-8 -31 -35.5 -53t-58.5 -22q-44 0 -63 -22q-27 -33 -59 -153q-25 -93 -25 -131q0 -30 15 -39q9 -5 38 -5q26 0 41.5 -15.5t15.5 -39.5q0 -10 -2 -20
q-14 -51 -60 -66q-26 -9 -86 -9zM303 250h-15q-4 27 22.5 125t43.5 125h16q51 0 97.5 36.5t59.5 88.5q6 22 6 40q0 85 -147 85q-146 0 -236 -145q-49 -80 -90 -230q-34 -129 -34 -202q0 -173 159 -173q175 0 209 125q4 17 4 32q0 41 -26.5 67t-68.5 26z" />
    <glyph glyph-name="parenright" unicode=")" horiz-adv-x="431" 
d="M148 50q-52 0 -72 6q-36 10 -36 44q0 11 4 25q8 31 35.5 53t58.5 22q44 0 63 22q27 33 59 153q25 93 25 131q0 30 -15 39q-9 5 -36.5 5t-43 15.5t-15.5 39.5q0 10 2 20q14 51 60 66q26 9 86 9q120 0 120 -135q0 -69 -32 -190q-42 -154 -93 -228q-67 -97 -170 -97z
M336 750q-175 0 -209 -125q-4 -17 -4 -32q0 -41 26.5 -67t68.5 -26h15q4 -27 -22.5 -125t-43.5 -125h-16q-51 0 -97.5 -36.5t-59.5 -88.5q-6 -22 -6 -40q0 -85 147 -85q146 0 236 145q49 80 90 230q34 129 34 202q0 173 -159 173z" />
    <glyph glyph-name="asterisk" unicode="*" horiz-adv-x="530" 
d="M437 303q-10 -2 -3 -11q14 -36 14 -48q0 -9 -3 -19q-9 -33 -37.5 -54t-58.5 -21q-39 0 -52 33l-17 42q-6 15 -19 0l-39 -42q-32 -33 -71 -33q-25 0 -41.5 15t-16.5 40q0 10 2 20q6 23 44 63q5 14 2 17q-33 13 -33 51q0 30 22 55.5t51 34.5q10 4 4 17q-13 31 -13 39
q0 9 4 23q9 33 37.5 54t58.5 21q39 0 52 -33l17 -42q6 -15 19 0l39 42q32 33 71 33q25 0 41.5 -15t16.5 -40q0 -9 -2 -20q-6 -21 -17 -34q-14 -15 -29 -31q-7 -12 -5 -13q38 -12 38 -53q0 -30 -23 -56.5t-53 -34.5zM565 405q0 34 -22 61q37 45 37 92q0 42 -28 67t-69 25
q-61 0 -112 -51q-24 51 -85 51q-51 0 -97 -34q-49 -36 -63 -91q-8 -29 0 -59q-70 -52 -70 -121q0 -35 21 -61q-37 -45 -37 -93q0 -42 28 -66.5t70 -24.5q62 0 113 51q24 -51 84 -51q51 0 98.5 35.5t61.5 89.5q8 30 0 60q70 51 70 120z" />
    <glyph glyph-name="plus" unicode="+" horiz-adv-x="530" 
d="M415 300h-32q-18 0 -22 -18l-16 -57q-9 -35 -36.5 -54.5t-58.5 -19.5q-58 0 -58 52q0 10 3 22l16 57q4 18 -13 18h-33q-25 0 -41 15.5t-16 40.5q0 36 30.5 65t67.5 29h32q18 0 22 18l16 57q9 35 38 56q26 18 57 18q58 0 58 -52q0 -10 -3 -22l-16 -57q-4 -18 13 -18h33
q25 0 41 -15.5t16 -40.5q0 -36 -30.5 -65t-67.5 -29zM469 500q8 29 8 53q0 47 -27 74q-25 24 -65 24q-51 0 -96 -37q-51 -43 -70 -114q-52 0 -98.5 -36.5t-60.5 -88.5q-4 -17 -4 -32q0 -41 26.5 -67t69.5 -26q-8 -29 -8 -53q0 -47 26 -72.5t66 -25.5q51 0 96 37
q51 43 70 114q52 0 98.5 36.5t59.5 88.5q5 17 5 32q0 41 -26.5 67t-69.5 26z" />
    <glyph glyph-name="comma" unicode="," horiz-adv-x="358" 
d="M247 47l21 78q4 12 4 22q0 52 -58 52q-30 0 -56 -18q-29 -21 -38 -56l-10 -37q-5 -6 -15 -14q-29 -4 -53 -25t-32 -49q-3 -12 -3 -23q0 -52 66 -52q53 0 104 33q56 35 70 89zM318 125l-21 -80q-23 -77 -97 -125q-68 -44 -140 -44q-47 0 -76 22t-29 64q0 18 5 38
q22 82 107 115l3 10q16 58 64 93q43 31 93 31q51 0 78 -31q29 -35 13 -93z" />
    <glyph glyph-name="hyphen" unicode="-" horiz-adv-x="529" 
d="M415 300h-250q-57 0 -57 53q0 35 28 66t70 31h250q57 0 57 -53q0 -35 -28 -66t-70 -31zM469 500h-250q-70 0 -118 -54q-44 -49 -44 -107q0 -39 24 -64t71 -25h250q70 0 118 54q44 49 44 107q0 39 -24 64t-71 25z" />
    <glyph glyph-name="hyphen" unicode="&#x2010;" horiz-adv-x="529" 
d="M415 300h-250q-57 0 -57 53q0 35 28 66t70 31h250q57 0 57 -53q0 -35 -28 -66t-70 -31zM469 500h-250q-70 0 -118 -54q-44 -49 -44 -107q0 -39 24 -64t71 -25h250q70 0 118 54q44 49 44 107q0 39 -24 64t-71 25z" />
    <glyph glyph-name="period" unicode="." horiz-adv-x="283" 
d="M44 125q9 35 38 56q26 18 56 18q59 0 59 -52q0 -10 -3 -22q-10 -35 -37.5 -54.5t-57.5 -19.5q-59 0 -59 52q0 10 4 22zM-7 125q-5 -19 -5 -37q0 -41 28 -63.5t69 -22.5q51 0 95 30q48 35 64 93q5 19 5 37q0 41 -28 64t-69 23q-51 0 -95 -31q-48 -35 -64 -93z" />
    <glyph glyph-name="slash" unicode="/" horiz-adv-x="480" 
d="M475 483l-281 -300q-31 -33 -71 -33q-23 0 -38 13q-20 15 -20 43q0 32 27 61l280 300q31 33 71 33q23 0 40.5 -14t17.5 -42q0 -32 -26 -61zM520 629q-25 21 -63 21q-67 0 -119 -56l-281 -300q-44 -47 -44 -101q0 -46 33 -72q25 -21 63 -21q67 0 119 56l281 300
q44 47 44 101q0 46 -33 72z" />
    <glyph glyph-name="zero" unicode="0" 
d="M455 750q159 0 159 -173q0 -73 -35 -202q-40 -150 -89 -230q-91 -145 -236 -145h-50q-159 0 -159 173q0 73 34 202q40 150 90 230q90 145 236 145h50zM267 50q103 0 170 97q51 74 92 228q33 121 33 190q0 135 -121 135h-50q-103 0 -169 -97q-52 -74 -93 -228
q-32 -121 -32 -190q0 -135 120 -135h50zM307 465q31 85 69 85q27 0 27 -50q0 -20 -4 -37v-2q-2 -10 -13 -11h-73q-7 1 -7 9q0 3 1 6zM346 300q7 -1 7 -7v-4l-1 -2q-12 -41 -34 -65q-18 -22 -36 -22q-27 0 -27 50q0 16 4 35q4 14 14 15h73z" />
    <glyph glyph-name="one" unicode="1" 
d="M411 125q-10 -35 -40 -56q-26 -18 -56 -18q-58 0 -58 51q0 11 4 23q10 35 69 255q23 88 23 126q0 30 -15 39q-9 5 -38 5q-57 0 -57 53q0 35 28 66t70 31h50q120 0 120 -135q0 -68 -31 -185q-21 -79 -69 -255zM404 750h-50q-70 0 -118 -54q-44 -49 -44 -107
q0 -39 23.5 -64t70.5 -25q16 0 16 -25q0 -12 -23 -96l-68 -254q-5 -19 -5 -37q0 -41 27.5 -64t69.5 -23q50 0 94 31q48 35 64 93l67 250q35 127 35 203q0 172 -159 172z" />
    <glyph glyph-name="two" unicode="2" 
d="M368 50h-250q-26 0 -41.5 15.5t-15.5 40.5q0 9 2 19q32 119 40 139q25 68 68 99q51 37 143 37q38 0 54 10q22 15 38 65q4 16 4 29q0 48 -41 48q-16 0 -31 -8.5t-18 -18.5q-9 -35 -36.5 -54.5t-57.5 -19.5q-59 0 -59 52q0 10 3 22q13 46 58 97q69 78 164 78h50
q126 0 126 -136q0 -16 -2 -35q-6 -54 -29 -108q-74 -171 -215 -171h-25q-40 0 -58 -37q-7 -13 7 -13h162q57 0 57 -53q0 -35 -26 -65q-29 -32 -71 -32zM453 245q92 62 131 168q22 62 24 67q4 29 9 57t5 53q0 77 -44 118.5t-122 41.5h-50q-112 0 -199 -86q-67 -67 -87 -139
q-4 -16 -4 -32q0 -59 49 -83q-72 -47 -107 -131q-9 -20 -45 -154q-4 -16 -4 -32q0 -41 26.5 -67t69.5 -26h250q67 0 117 53q45 49 45 107q0 66 -64 85z" />
    <glyph glyph-name="three" unicode="3" 
d="M267 50h-50q-132 0 -132 137q0 23 4 38q9 35 38 56q26 18 57 18q58 0 58 -52q0 -10 -3 -22q-3 -11 6 -18t23 -7q62 0 87 92q2 7 -7 8q-62 0 -80 4q-42 10 -42 47q0 11 3 24q15 54 66 68q24 7 92 7q5 0 12 9q6 22 6 40q0 52 -43 52q-36 0 -43 -26q-9 -35 -36.5 -54.5
t-57.5 -19.5q-59 0 -59 52q0 10 3 22q13 46 58 97q69 78 164 78h50q121 0 121 -135q0 -69 -33 -190q-41 -154 -92 -228q-67 -97 -170 -97zM455 750h-50q-112 0 -199 -86q-67 -67 -87 -139q-4 -16 -4 -32q0 -35 20.5 -59.5t54.5 -31.5q-14 -27 -15 -54q-46 -8 -85 -42.5
t-51 -80.5q-6 -23 -6 -52q0 -69 35 -115q45 -58 136 -58h50q145 0 236 145q49 80 89 230q35 129 35 202q0 173 -159 173z" />
    <glyph glyph-name="four" unicode="4" 
d="M445 209q60 28 60 85q0 31 -25 47q-9 2 -5 17l71 267q3 12 3 22q0 52 -58 52q-30 0 -56 -18q-29 -21 -39 -56l-70 -261q-6 -5 -14 -10q-17 8 -17 45q0 35 24 126l28 100q3 12 3 22q0 52 -58 52q-31 0 -57 -18q-29 -21 -38 -56l-31 -111q-30 -112 -30 -179
q0 -135 121 -135q25 0 21 -18l-16 -57q-3 -12 -3 -22q0 -52 58 -52q31 0 58.5 19.5t36.5 54.5l18 65q4 8 15 19zM529 373q28 -26 28 -67q0 -78 -81 -129l-14 -52q-15 -58 -64 -93q-43 -31 -94 -31t-78 31q-29 35 -14 93l7 27q-134 13 -134 173q0 73 34 200q8 28 28 100
q15 56 64 91q45 34 95 34q61 0 85 -50q51 50 113 50q41 0 69 -24.5t28 -66.5q0 -16 -5 -34z" />
    <glyph glyph-name="five" unicode="5" 
d="M267 50h-50q-81 0 -118 38q-26 27 -26 67q0 11 3 20q9 34 37 54.5t58 20.5q48 0 56 -44q15 -9 35 -9q57 0 80 53q4 39 -21 47q-8 3 -62 3q-117 7 -117 103q0 21 7 47l27 100q37 139 190 150h175q26 0 42 -16t16 -40q0 -36 -31 -65t-67 -29h-125q-15 -1 -27 -7
q-28 -12 -36 -43q-3 -9 -3 -17q0 -33 64 -33q125 0 125 -136q0 -29 -6 -64q-72 -200 -226 -200zM388 500h100q51 0 97.5 36.5t60.5 88.5q5 16 5 32q0 41 -26.5 67t-69.5 26h-175q-100 0 -174 -70q-60 -57 -80 -130l-27 -100q-7 -26 -7 -54q0 -67 40 -106q-84 -33 -106 -115
q-4 -14 -4 -32q0 -56 34 -93q47 -50 148 -50h50q97 0 185 78.5t105 176.5q7 38 7 71q0 174 -163 174z" />
    <glyph glyph-name="six" unicode="6" 
d="M482 200q-37 -139 -190 -150h-75q-120 0 -120 135q0 69 32 190q41 154 93 228q66 97 169 97h150q57 0 57 -53q0 -35 -26 -65q-29 -32 -71 -32q-18 0 -47.5 2t-40.5 2q-78 0 -107 -92q-3 -11 8 -12h110q41 0 67 -37q23 -33 23 -78q0 -18 -5 -35zM438 500h50q69 0 118 54
q44 49 44 107q0 39 -24 64t-71 25h-150q-146 0 -236 -145q-50 -80 -90 -230q-34 -129 -34 -202q0 -173 159 -173h75q99 0 173 70q61 57 80 130l27 100q6 24 6 49q0 61 -35 106t-92 45zM308 300h-35q-14 -12 -14 -14q-15 -86 29 -86q17 0 34.5 15t23.5 35q1 7 1 14
q0 36 -39 36z" />
    <glyph glyph-name="seven" unicode="7" 
d="M462 125q-10 -35 -37.5 -54.5t-57.5 -19.5q-59 0 -59 52q0 10 4 22l68 254q20 75 20 118q0 54 -28 54q-17 0 -36 -17t-23 -34l-34 -125q-9 -35 -36.5 -54.5t-58.5 -19.5q-58 0 -58 52q0 10 3 22l47 175q37 139 190 150h75q121 0 121 -135q0 -68 -32 -185l-34 -128v0z
M455 750h-75q-100 0 -174 -70q-60 -57 -80 -130l-47 -175q-5 -19 -5 -37q0 -41 29 -65q26 -22 68 -22q51 0 94 31q49 35 64 93l-67 -250q-6 -19 -6 -37q0 -41 28 -64t69 -23q51 0 95 31q48 35 64 93l35 131v0l35 131q32 117 32 189q0 174 -159 174z" />
    <glyph glyph-name="eight" unicode="8" 
d="M267 50q102 0 169 95q52 74 92 225l34 128q1 2 34 127q2 10 2 19q0 25 -16 40.5t-41 15.5h-150q-102 0 -169 -95q-51 -74 -92 -225l-34 -128q0 -2 -33 -127q-3 -10 -3 -19q0 -25 16 -40.5t42 -15.5h149zM646 625l-35 -131q-1 -2 -35 -131q-97 -363 -322 -363h-150
q-43 0 -69.5 26t-26.5 67q0 15 5 32l69 262q97 363 323 363h149q43 0 69.5 -26t26.5 -67q0 -15 -4 -32zM346 300q8 0 8 -7q0 -30 -32 -63.5t-63 -33.5q-23 0 -23 16q0 3 1 6l18 64q4 18 22 18h69zM395 553q27 0 27 -17q0 -2 -1 -4l-17 -64q-5 -18 -23 -18h-69q-8 0 -8 6
q0 30 30 63.5t61 33.5z" />
    <glyph glyph-name="nine" unicode="9" 
d="M482 200q-37 -139 -190 -150h-125q-57 0 -57 53q0 35 28 66t69 31h75q17 0 38.5 13.5t21.5 29.5q0 10 -34 10q-12 0 -42.5 -1.5t-44.5 -1.5q-23 0 -39 13q-52 30 -52 94q0 21 6 43l40 150q37 139 190 150h75q126 0 126 -136q0 -49 -18 -114zM455 750h-75q-100 0 -174 -70
q-60 -57 -80 -130l-40 -150q-6 -22 -6 -52q0 -86 59 -123q-81 -51 -81 -133q0 -40 25 -66t71 -26h125q99 0 173 70q61 57 80 130l67 250q19 71 19 127q0 173 -163 173zM313 500l-14 -50q-2 -7 -2 -13q0 -40 53 -40q35 0 41 21l8 32q9 32 9 55q0 46 -32 46q-19 0 -38.5 -16
t-24.5 -35z" />
    <glyph glyph-name="colon" unicode=":" horiz-adv-x="281" 
d="M84 275q9 35 38 56q26 18 57 18q58 0 58 -52q0 -10 -3 -22q-10 -35 -37.5 -54.5t-57.5 -19.5q-58 0 -58 52q0 10 3 22zM137 475q10 35 39 56q26 18 56 18q58 0 58 -52q0 -10 -3 -22q-9 -35 -36.5 -54.5t-58.5 -19.5q-58 0 -58 52q0 10 3 22zM246 375q75 39 91 100
q5 19 5 37q0 41 -27.5 64t-69.5 23q-50 0 -94 -31q-48 -35 -64 -93q-3 -14 -3 -26q0 -44 41 -74q-75 -39 -91 -100q-6 -19 -6 -37q0 -41 28 -64t70 -23q50 0 94 31q48 35 64 93q3 14 3 26q0 44 -41 74z" />
    <glyph glyph-name="semicolon" unicode=";" horiz-adv-x="360" 
d="M290 197q-15 -54 -71 -89q-52 -33 -105 -33q-67 0 -67 52q0 11 3 23q8 28 32.5 49t53.5 25q13 2 19 24q3 14 6 27q9 35 38 56q26 18 57 18q58 0 58 -52q0 -10 -3 -22zM214 475q10 35 39 56q26 18 56 18q59 0 59 -52q0 -10 -4 -22q-9 -35 -36.5 -54.5t-57.5 -19.5
q-59 0 -59 52q0 10 3 22zM323 375q75 39 91 100q6 19 6 37q0 41 -28 64t-69 23q-51 0 -95 -31q-48 -35 -64 -93q-3 -14 -3 -26q0 -44 41 -74q-75 -39 -91 -100q-2 -7 -26 -23q-32 -21 -48 -38q-27 -28 -37 -64q-5 -20 -5 -37q0 -43 31 -66q28 -21 76 -21q72 0 139 43
q75 49 98 126l1 2l21 78q4 14 4 26q0 44 -42 74z" />
    <glyph glyph-name="equal" unicode="=" horiz-adv-x="531" 
d="M389 200h-250q-57 0 -57 53q0 35 27.5 66t69.5 31h250q57 0 57 -53q0 -35 -28 -66t-69 -31zM232 550h250q57 0 57 -53q0 -35 -26 -65q-29 -32 -71 -32h-250q-57 0 -57 53q0 35 28 66t69 31zM496 375q96 50 96 133q0 39 -26 65.5t-70 26.5h-250q-62 0 -111.5 -47.5
t-49.5 -101.5q0 -47 40 -76q-96 -50 -96 -133q0 -39 26 -65.5t70 -26.5h250q62 0 111.5 47.5t49.5 101.5q0 47 -40 76z" />
    <glyph glyph-name="question" unicode="?" horiz-adv-x="533" 
d="M293 125q10 35 39 56q26 18 56 18q59 0 59 -52q0 -10 -4 -22q-9 -35 -36.5 -54.5t-57.5 -19.5q-59 0 -59 52q0 10 3 22zM346 325l20 69q17 64 17 103q0 54 -30 54q-17 0 -35.5 -17t-23.5 -34l-13 -50q-10 -35 -37.5 -54.5t-57.5 -19.5q-59 0 -59 52q0 10 4 22l26 100
q38 139 191 150h75q121 0 121 -135q0 -71 -48 -240q-9 -35 -36.5 -54.5t-58.5 -19.5q-58 0 -58 52q0 10 3 22zM455 225q74 39 91 100q6 17 18 64q32 113 32 187q0 174 -160 174h-75q-100 0 -174 -70q-60 -56 -80 -130l-26 -100q-5 -19 -5 -36q0 -41 29 -66q26 -22 68 -22
q46 0 86 27q45 29 66 81q-6 -27 -28 -108q-4 -14 -4 -27q0 -44 42 -74q-75 -39 -92 -100q-5 -19 -5 -37q0 -41 28 -64t69 -23q51 0 95 31q48 35 63 93q4 14 4 26q0 44 -42 74z" />
    <glyph glyph-name="at" unicode="@" horiz-adv-x="584" 
d="M547 325q-9 -35 -36.5 -54.5t-58.5 -19.5q-58 0 -58 52q0 10 3 22l13 50q-9 -35 -36.5 -54.5t-57.5 -19.5q-59 0 -59 52q0 10 3 22l-33 -125q-2 -8 -2 -16q0 -31 39 -34h175q57 0 57 -53q0 -35 -28 -66t-70 -31h-225q-116 7 -116 103q0 21 7 47l93 350q38 139 191 150
h150q116 -7 116 -103q0 -21 -7 -47zM597 325l60 225q8 27 8 54q0 61 -34 100q-40 46 -120 46h-150q-100 0 -174 -70q-60 -57 -80 -130l-93 -350q-8 -27 -8 -54q0 -61 34 -100q40 -46 120 -46h225q65 0 115 52q48 49 48 106q0 41 -28 67q60 38 77 100zM410 375l34 125
q2 8 2 16q0 32 -39 34h-49q-15 -1 -27 -6q-29 -13 -37 -44l-34 -125q10 35 39 56q26 18 56 18q59 0 59 -52q0 -10 -4 -22z" />
    <glyph glyph-name="A" unicode="A" horiz-adv-x="536" 
d="M356 450h-50q-20 1 -16 20q21 77 66 77q30 0 30 -43q0 -15 -5 -34t-25 -20zM443 125q-10 -35 -37.5 -54.5t-57.5 -19.5q-58 0 -58 52q0 10 3 22l42 157q5 18 -12 18h-65q-17 0 -22 -18l-42 -157q-9 -35 -36.5 -54.5t-58.5 -19.5q-58 0 -58 52q0 10 3 22l68 255
q40 151 92 225q66 95 169 95h50q120 0 120 -135q0 -68 -31 -185l-2 -5zM436 750h-50q-225 0 -322 -363l-70 -262q-5 -19 -5 -36q0 -42 28 -65t69 -23q49 0 91 29q47 33 65 89q-4 -16 -4 -30q0 -42 29 -66q26 -22 67 -22q51 0 95 31q48 35 64 93l35 131v0q1 0 36 131
q31 117 31 189q0 174 -159 174z" />
    <glyph glyph-name="B" unicode="B" horiz-adv-x="531" 
d="M248 50h-150q-25 0 -41 15.5t-16 40.5q0 9 2 19l134 500q9 31 37 53t59 22h150q120 0 120 -135q0 -69 -33 -190q-41 -154 -92 -228q-67 -97 -170 -97zM436 750h-150q-52 0 -98.5 -36.5t-60.5 -88.5l-134 -500q-4 -17 -4 -32q0 -41 26.5 -67t69.5 -26h150q146 0 236 145
q49 80 89 230q35 129 35 202q0 173 -159 173zM332 550q-25 0 -29 -18l-18 -64q-4 -18 13 -18h66q8 6 17 14q4 26 4 43q0 29 -14 38q-10 5 -39 5zM323 300h-65q-18 0 -22 -18l-18 -64q-4 -18 21 -18q35 0 50 11q23 16 44 75q7 14 -10 14z" />
    <glyph glyph-name="C" unicode="C" horiz-adv-x="534" 
d="M248 50h-50q-120 0 -120 135q0 69 32 190q42 154 93 228q67 97 170 97h50q132 0 132 -137q0 -23 -4 -38q-10 -35 -37.5 -54.5t-57.5 -19.5q-58 0 -58 52q0 6 2 15.5t2 13.5q0 16 -37 18q-33 -2 -52 -31q-24 -37 -53 -144q-24 -93 -24 -131q0 -41 35 -44q43 2 49 25
q10 35 39 56q26 18 56 18q58 0 58 -52q0 -10 -3 -22q-12 -46 -57 -97q-69 -78 -165 -78zM288 264q2 34 22.5 111t36.5 111q3 -42 29 -63.5t65 -21.5q51 0 97.5 33.5t62.5 90.5q6 23 6 52q0 69 -35 115q-45 58 -136 58h-50q-146 0 -236 -145q-49 -80 -90 -230
q-34 -129 -34 -202q0 -173 159 -173h50q112 0 199 86q67 67 86 139q5 18 5 35q0 42 -28 65.5t-69 23.5q-89 0 -140 -85z" />
    <glyph glyph-name="D" unicode="D" horiz-adv-x="531" 
d="M248 50h-150q-25 0 -41 15.5t-16 40.5q0 9 3 19l133 500q9 31 37 53t59 22h150q120 0 120 -135q0 -69 -33 -190q-41 -154 -92 -228q-67 -97 -170 -97zM436 750h-150q-52 0 -98.5 -36.5t-60.5 -88.5l-134 -500q-4 -16 -4 -32q0 -41 26.5 -67t69.5 -26h150q146 0 236 145
q49 80 89 230q35 129 35 202q0 173 -159 173zM332 550q-25 0 -29 -18l-85 -314q-4 -18 20 -18q44 0 63 22q27 33 59 153q25 93 25 131q0 30 -15 39q-9 5 -38 5z" />
    <glyph glyph-name="E" unicode="E" horiz-adv-x="480" 
d="M298 50q42 0 70 31t28 66q0 53 -57 53h-50q-29 0 -39 5q-16 8 -16 36q0 18 6 47l1 2q2 9 14 10h110q42 0 70 31t28 66q0 53 -57 53h-112q-11 1 -8 10l1 2q19 60 43 77q16 11 53 11h49q42 0 70 31t28 66q0 53 -57 53h-100q-103 0 -170 -97q-51 -74 -93 -228
q-32 -121 -32 -190q0 -135 120 -135h100zM352 250q47 0 71 -25t24 -64q0 -58 -44 -107q-48 -54 -118 -54h-100q-159 0 -159 173q0 73 34 202q41 150 90 230q90 145 236 145h100q47 0 71 -25t24 -64q0 -58 -44 -107q-48 -54 -118 -54q47 0 71 -25t24 -64q0 -58 -44 -107
q-48 -54 -118 -54z" />
    <glyph glyph-name="F" unicode="F" horiz-adv-x="479" 
d="M365 300h-107q-17 0 -22 -18l-42 -157q-9 -35 -36.5 -54.5t-58.5 -19.5q-58 0 -58 52q0 10 3 22l66 250q37 138 79 208q71 117 184 117h100q57 0 57 -53q0 -35 -28 -66t-70 -31h-49q-43 0 -64 -23q-17 -18 -32 -67q-3 -9 8 -10h111q57 0 57 -53q0 -35 -28 -66t-70 -31z
M419 500q70 0 118 54q44 49 44 107q0 39 -24 64t-71 25h-100q-139 0 -226 -130q-57 -85 -100 -245q1 0 -66 -250q-5 -19 -5 -37q0 -41 29 -65q26 -21 68 -21q51 0 94 30q49 35 64 93l29 107q4 18 22 18h57q70 0 118 54q44 49 44 107q0 39 -24 64t-71 25z" />
    <glyph glyph-name="G" unicode="G" horiz-adv-x="534" 
d="M470 225q-12 -46 -57 -97q-69 -78 -165 -78h-50q-120 0 -120 135q0 69 32 190q42 154 93 228q67 97 170 97h50q81 0 117 -38q26 -27 26 -67q0 -11 -2 -20q-9 -34 -37 -54.5t-59 -20.5q-47 0 -55 44q-10 6 -34 6q-41 0 -60 -23q-27 -34 -59 -152q-24 -93 -24 -131
q0 -41 35 -44q43 2 49 25q17 64 17 63q0 12 -9 13q-45 8 -45 55q0 9 2 19q10 36 39 55.5t64 19.5q44 0 75 -27q34 -30 34 -80q0 -20 -7 -43zM508 460q84 33 106 115q4 14 4 32q0 55 -35 93q-47 50 -147 50h-50q-146 0 -236 -145q-49 -80 -90 -230q-34 -129 -34 -202
q0 -173 159 -173h50q112 0 199 86q67 67 86 139l20 75q7 26 7 53q0 68 -39 107z" />
    <glyph glyph-name="H" unicode="H" horiz-adv-x="540" 
d="M443 125q-9 -35 -36.5 -54.5t-57.5 -19.5q-59 0 -59 52q0 10 3 22l43 157q4 18 -13 18h-65q-18 0 -22 -18l-43 -157q-9 -35 -36.5 -54.5t-57.5 -19.5q-59 0 -59 52q0 10 4 22l133 500q10 35 39 56q26 18 56 18q59 0 59 -52q0 -10 -4 -22l-42 -157q-4 -18 13 -18h65
q18 0 22 18l42 157q10 35 39 56q26 18 56 18q59 0 59 -52q0 -10 -4 -22zM377 625q6 19 6 37q0 41 -28 64t-69 23q-51 0 -95 -31q-48 -35 -64 -93l-134 -500q-5 -19 -5 -37q0 -41 28 -63.5t69 -22.5q51 0 95 30q48 35 63 93q-5 -19 -5 -37q0 -41 28 -63.5t69 -22.5
q51 0 95 30q48 35 63 93l134 500q6 19 6 37q0 41 -28 64t-69 23q-51 0 -95 -31q-48 -35 -64 -93z" />
    <glyph glyph-name="I" unicode="I" horiz-adv-x="290" 
d="M193 125q-9 -35 -36.5 -54.5t-57.5 -19.5q-59 0 -59 52q0 10 3 22l134 500q10 35 39 56q26 18 56 18q59 0 59 -52q0 -10 -4 -22zM127 625l-134 -500q-5 -19 -5 -37q0 -41 28 -64t69 -23q51 0 95 31q48 35 63 93l134 500q6 19 6 37q0 41 -28 64t-69 23q-51 0 -95 -31
q-48 -35 -64 -93z" />
    <glyph glyph-name="J" unicode="J" horiz-adv-x="531" 
d="M248 50h-75q-116 7 -116 103q0 21 7 47l46 175q10 35 39 56q26 18 56 18q59 0 59 -52q0 -10 -4 -22l-33 -125q-2 -8 -2 -15q0 -29 32 -35q31 3 51 31q24 36 51 140q3 11 68 254q9 35 38 56q26 18 57 18q58 0 58 -52q0 -10 -3 -22l-34 -127v0v0v0q-1 -6 -34 -128
q-40 -151 -92 -225q-66 -95 -169 -95zM627 625v0q5 19 5 37q0 41 -27.5 64t-69.5 23q-51 0 -94 -31q-49 -35 -64 -93l-67 -250q6 19 6 37q0 41 -28 64t-69 23q-51 0 -95 -31q-48 -35 -64 -93l-46 -175q-8 -27 -8 -54q0 -61 34 -100q40 -46 120 -46h75q226 0 322 363l35 131
v0v0v0q1 4 35 131z" />
    <glyph glyph-name="K" unicode="K" horiz-adv-x="533" 
d="M495 181l-45 194l149 194q34 45 34 87q0 41 -29.5 67.5t-72.5 26.5q-72 0 -125 -69l-24 -31q3 48 -26 75q-26 24 -69 24q-51 0 -95 -32q-49 -35 -65 -92l-134 -500q-5 -19 -5 -36q0 -41 30 -65q27 -23 68 -23q44 0 83 24q43 27 65 75q24 -100 106 -100q65 0 118 57.5
t37 123.5zM292 91l-44 193q-2 7 -6 7q-4 -1 -6 -9l-42 -157q-10 -35 -37.5 -54.5t-57.5 -19.5q-59 0 -59 52q0 10 3 22l134 500q10 35 39 56q26 18 56 18q59 0 59 -52q0 -10 -4 -22l-42 -157q-2 -8 2 -9q4 0 9 7l148 193q32 41 75 41q26 0 44 -16t18 -40q0 -26 -20 -53
l-158 -205q-9 -11 -6 -22l48 -205q1 -9 1 -17q0 -37 -32.5 -64.5t-68.5 -27.5q-43 0 -53 41z" />
    <glyph glyph-name="L" unicode="L" horiz-adv-x="481" 
d="M298 50q42 0 70 31t28 66q0 53 -57 53h-51q-28 0 -38 6q-15 8 -15 38q0 38 24 127q1 1 1 2q2 6 15 55q27 99 53 197q3 12 3 22q0 52 -58 52q-30 0 -56 -18q-29 -21 -39 -56l-69 -255q-31 -117 -31 -185q0 -135 120 -135h100zM352 250q47 0 71 -25t24 -64q0 -58 -44 -107
q-48 -54 -118 -54h-100q-159 0 -159 173q0 73 31 190q-4 -17 71 262q16 58 64 93q44 31 94 31q51 0 78 -31q30 -35 14 -93l-67 -250q-27 -97 -23 -125h64z" />
    <glyph glyph-name="M" unicode="M" horiz-adv-x="590" 
d="M493 125q-9 -35 -36.5 -54.5t-57.5 -19.5q-59 0 -59 52q0 10 3 22l32 117q1 5 -1 5q-3 1 -4 -2q-32 -45 -81 -45q-50 0 -57 45q-1 4 -4 2q-2 -2 -3 -5l-31 -117q-10 -35 -37.5 -54.5t-57.5 -19.5q-59 0 -59 52q0 10 3 22l134 500q10 34 38 54.5t58 20.5q49 0 56 -45
l29 -180q0 -2 3 -2q4 -1 5 2l125 180q32 45 81 45q25 0 41.5 -14.5t16.5 -39.5q0 -10 -3 -21zM451 674l-57 -82l-13 82q-13 75 -94 75q-50 0 -96 -32q-48 -35 -64 -92l-134 -500q-5 -19 -5 -37q0 -41 28 -64t69 -23q51 0 95 31q48 35 64 93l7 29q24 -5 50 0l-8 -29
q-5 -19 -5 -37q0 -41 28 -64t69 -23q51 0 95 31q48 35 63 93l134 500q5 18 5 35q0 41 -28 65t-70 24q-81 0 -133 -75z" />
    <glyph glyph-name="N" unicode="N" horiz-adv-x="540" 
d="M443 125q-9 -34 -37 -54.5t-58 -20.5q-46 0 -55 42l-47 199q-1 5 -4 3q-4 -1 -4 -4l-44 -165q-10 -35 -37.5 -54.5t-57.5 -19.5q-59 0 -59 52q0 10 4 22l133 500q10 34 38 54.5t58 20.5q46 0 55 -42l47 -199q1 -4 4 -3t4 4l44 165q10 35 39 56q26 18 56 18q59 0 59 -52
q0 -10 -4 -22zM386 649l-7 32q-16 69 -92 69q-50 0 -96 -33q-48 -36 -64 -92l-134 -500q-5 -19 -5 -35q0 -42 30 -66q27 -23 68 -23q44 0 83 25q43 27 66 75l7 -32q16 -68 92 -68q50 0 96 32q48 36 63 92l134 500q5 19 5 36q0 41 -28 64.5t-69 23.5q-44 0 -83 -25
q-43 -27 -66 -75z" />
    <glyph glyph-name="O" unicode="O" horiz-adv-x="531" 
d="M357 549q-28 -4 -47 -36q-22 -37 -50 -138q-24 -93 -24 -131t28 -43q28 4 47 36q22 37 49 138q25 93 25 131t-28 43zM248 50h-50q-120 0 -120 135q0 69 32 190q42 154 93 228q67 97 170 97h50q120 0 120 -135q0 -69 -33 -190q-41 -154 -92 -228q-67 -97 -170 -97z
M436 750h-50q-146 0 -236 -145q-49 -80 -90 -230q-34 -129 -34 -202q0 -173 159 -173h50q146 0 236 145q49 80 89 230q35 129 35 202q0 173 -159 173z" />
    <glyph glyph-name="P" unicode="P" horiz-adv-x="530" 
d="M289 200h-57q-18 0 -23 -18l-15 -57q-9 -35 -36.5 -54.5t-58.5 -19.5q-58 0 -58 52q0 10 3 22l68 255q40 151 92 225q66 95 169 95h50q125 0 125 -136q0 -49 -17 -114q-30 -110 -78 -167q-60 -73 -164 -83zM436 750h-50q-225 0 -322 -363l-70 -262q-5 -19 -5 -37
q0 -41 29 -65q26 -21 68 -21q51 0 94 30q49 35 64 93q6 22 7.5 23.5t23.5 1.5q107 0 187 78.5t119 221.5q19 71 19 127q0 173 -164 173zM359 549q-29 -3 -48 -34q-23 -36 -49 -136q-4 -12 -4 -17q0 -14 20 -12q44 0 60 13q24 18 43 87q10 40 10 62q0 34 -32 37z" />
    <glyph glyph-name="Q" unicode="Q" horiz-adv-x="582" 
d="M398 50h-200q-120 0 -120 135q0 69 32 190q42 154 93 228q67 97 170 97h50q120 0 120 -135q0 -69 -33 -190q-27 -104 -55 -163q-5 -8 -4 -10q0 -3 7 -5q38 -13 38 -52q0 -34 -28 -63q-29 -32 -70 -32zM513 229q24 59 47 146q35 129 35 202q0 173 -159 173h-50
q-146 0 -236 -145q-49 -80 -90 -230q-34 -129 -34 -202q0 -173 159 -173h200q66 0 115 52q47 48 47 105q0 46 -34 72zM357 549q-28 -4 -47 -36q-22 -37 -50 -138q-24 -93 -24 -131t28 -43q28 4 47 36q22 37 49 138q25 93 25 131t-28 43z" />
    <glyph glyph-name="R" unicode="R" horiz-adv-x="531" 
d="M294 500q5 20 25 35.5t39 15.5q33 0 33 -44q0 -19 -7 -44q-16 -60 -41 -77q-16 -11 -58 -11q-25 0 -20 18zM293 125q11 40 11 62q0 26 -16 33q-10 5 -43 5q-25 0 -29 -18l-23 -82q-9 -35 -36.5 -54.5t-57.5 -19.5q-59 0 -59 52q0 10 3 22l114 425q38 139 191 150h75
q128 0 128 -133q0 -38 -12 -80l-13 -50q-18 -65 -65 -126q-8 -11 -6 -23q6 -22 6 -49q0 -50 -18 -114q-9 -35 -36.5 -54.5t-57.5 -19.5q-59 0 -59 52q0 10 3 22zM508 300q56 77 82 190q11 49 11 90q0 82 -43 126t-122 44h-75q-100 0 -174 -70q-60 -57 -80 -130l-114 -425
q-5 -19 -5 -37q0 -41 28 -64t69 -23q51 0 95 31q48 35 63 93q-5 -19 -5 -37q0 -41 28 -64t69 -23q51 0 95 31q48 35 63 93q19 69 19 125q0 26 -4 50z" />
    <glyph glyph-name="S" unicode="S" horiz-adv-x="530" 
d="M248 50h-50q-72 0 -110 31q-33 28 -33 69q0 39 27.5 69.5t69.5 30.5q34 0 46 -25t43 -25q34 0 48 7q20 10 35 43q3 34 -14 44q-10 6 -47 6q-62 1 -94 40q-30 36 -30 94q0 95 65 177q70 89 169 89h50q72 0 110 -31q33 -27 33 -69q0 -39 -27.5 -69.5t-69.5 -30.5
q-33 0 -46.5 25t-45.5 25q-31 0 -45 -7q-20 -10 -35 -43q-3 -34 14 -44q10 -6 47 -6q62 -1 93 -38.5t31 -95.5q0 -95 -65 -177q-70 -89 -169 -89zM488 454q59 15 96 61q34 44 34 96q0 59 -43 96q-49 43 -139 43h-50q-125 0 -215 -109q-84 -101 -84 -219q0 -79 46 -126
q-59 -15 -94.5 -60t-35.5 -97q0 -58 43 -96q49 -43 139 -43h50q123 0 214 109q85 101 85 218q0 80 -46 127z" />
    <glyph glyph-name="T" unicode="T" horiz-adv-x="480" 
d="M432 550q-25 0 -29 -18l-110 -407q-9 -35 -36.5 -54.5t-57.5 -19.5q-59 0 -59 52q0 10 3 22l110 407q4 18 -21 18q-57 0 -57 53q0 35 28 66t70 31h200q57 0 57 -53q0 -35 -28 -66t-70 -31zM486 750h-200q-68 0 -115.5 -51.5t-47.5 -109.5q0 -71 72 -86l-102 -378
q-5 -19 -5 -37q0 -41 28 -64t69 -23q51 0 95 31q48 35 63 93l102 378q61 11 100 60q36 45 36 96q0 40 -24 65.5t-71 25.5z" />
    <glyph glyph-name="U" unicode="U" horiz-adv-x="531" 
d="M248 50h-50q-120 0 -120 135q0 68 31 185l35 128v0l34 127q10 35 39 56q26 18 56 18q58 0 58 -52q0 -10 -3 -22l-34 -127v0q-1 0 -35 -127q-23 -88 -23 -126q0 -39 28 -44q28 4 46 35q23 37 49 135l34 127v0v0v0q3 11 34 127q9 35 38 56q26 18 57 18q58 0 58 -52
q0 -10 -3 -22l-34 -127v0v0v0q-1 -6 -34 -128q-40 -151 -92 -225q-66 -95 -169 -95zM627 625q5 19 5 36q0 42 -28 65t-69 23q-49 0 -91 -29q-47 -33 -65 -89q4 16 4 30q0 42 -27.5 65t-68.5 23q-51 0 -95 -31q-48 -35 -64 -93l-35 -131v0q-1 0 -36 -131q-31 -117 -31 -190
q0 -173 159 -173h50q225 0 322 363l35 131v0q2 5 35 131z" />
    <glyph glyph-name="V" unicode="V" horiz-adv-x="536" 
d="M256 50h-158q-25 0 -41 15.5t-16 40.5q0 9 3 19l133 500q10 35 39 56q26 18 56 18q59 0 59 -52q0 -10 -4 -22l-109 -407q-4 -18 20 -18v0q44 0 62 21q28 33 59 150l34 127v0v0v0q3 11 34 127q9 35 38 56q26 18 57 18q58 0 58 -52q0 -10 -3 -22l-34 -127v0q-1 -6 -34 -128
q-85 -320 -253 -320zM560 375l67 250q5 19 5 36q0 42 -28 65t-69 23q-50 0 -93 -30q-47 -34 -64 -91q4 18 4 33q0 42 -27.5 65t-68.5 23q-51 0 -95 -31q-48 -35 -64 -93l-134 -500q-4 -16 -4 -32q0 -41 26.5 -67t69.5 -26h157q219 0 318 375z" />
    <glyph glyph-name="W" unicode="W" horiz-adv-x="590" 
d="M493 125q-8 -34 -36.5 -54.5t-58.5 -20.5q-42 0 -54 37v-1l-45 137q-6 2 -8 0l-119 -137v1q-31 -37 -73 -37q-25 0 -41.5 14.5t-16.5 39.5q0 10 2 21l134 500q10 35 39 56q26 18 56 18q59 0 59 -52q0 -10 -4 -22l-56 -212q-1 -3 2 -4t6 2l3 3q31 36 74 36q42 0 54 -36
l1 -3q1 -4 5 -2q4 1 5 4l56 212q10 35 39 56q26 18 56 18q59 0 59 -52q0 -10 -4 -22zM427 625l-34 -128q-24 5 -50 0l34 128q6 19 6 37q0 41 -28 64t-69 23q-51 0 -95 -31q-48 -35 -64 -93l-134 -500q-4 -18 -4 -34q0 -42 27.5 -66.5t69.5 -24.5q70 0 122 61l62 71
q6 -18 24 -71q21 -60 90 -60q51 0 96 32q48 36 64 92l133 500q6 19 6 37q0 41 -28 64t-69 23q-51 0 -95 -31q-48 -35 -64 -93z" />
    <glyph glyph-name="X" unicode="X" horiz-adv-x="532" 
d="M348 50h-50q-75 0 -101 49q-11 1 -20 -8q-32 -41 -79 -41q-26 0 -41.5 16t-15.5 40q0 27 19 53l168 218q15 19 28 67q6 28 13 56q2 8 2 16q0 32 -39 34q-57 0 -57 53q0 35 28 66t70 31q68 0 88 -4q44 -9 63 -45q11 -1 20 8q32 41 75 41q26 0 44 -16t18 -40q0 -26 -20 -53
l-168 -218q-15 -19 -28 -67q-6 -28 -13 -56q-2 -8 -2 -16q0 -31 39 -34q57 0 57 -53q0 -35 -28 -66t-70 -31zM402 250q1 19 9 51q10 36 21 50l167 218q34 44 34 87q0 41 -28 67.5t-71 26.5q-46 0 -91 -33q-29 24 -72 30q-19 3 -85 3q-70 0 -118 -54q-44 -49 -44 -107
q0 -46 26 -66q21 -17 69 -23q-1 -15 -12 -53.5t-18 -47.5l-167 -218q-33 -43 -33 -88q0 -40 26 -66.5t70 -26.5q48 0 93 33q40 -33 107 -33h50q66 0 116 52q47 50 47 107q0 80 -96 91z" />
    <glyph glyph-name="Y" unicode="Y" horiz-adv-x="532" 
d="M382 319q-12 -3 -17 -18l-47 -176q-10 -35 -37.5 -54.5t-57.5 -19.5q-58 0 -58 52q0 10 3 22l46 174q3 13 -6 20q-61 30 -61 128q0 68 30 178v0q10 35 39 56q26 18 56 18q59 0 59 -52q0 -10 -4 -22v0q-24 -91 -24 -129q0 -39 28 -44q27 5 46 36q23 38 50 137h-1
q10 35 38 56q27 18 57 18q58 0 58 -52q0 -10 -3 -22h1q-69 -257 -195 -306zM378 629q4 18 4 33q0 42 -27.5 64.5t-68.5 22.5q-51 0 -94 -31q-49 -35 -65 -93l-2 -8q-29 -108 -29 -181q0 -109 64 -152l-42 -159q-5 -19 -5 -37q0 -41 29 -65q26 -22 68 -22q51 0 94 31
q48 35 64 93l42 159q145 72 216 336l1 5q5 19 5 36q0 42 -28 65t-70 23q-49 0 -92 -30q-47 -33 -64 -90z" />
    <glyph glyph-name="Z" unicode="Z" horiz-adv-x="481" 
d="M298 50h-200q-26 0 -41.5 16t-15.5 40t15 47l255 381q11 16 -7 16h-72q-57 0 -57 53q0 35 28 66t70 31h200q26 0 41.5 -16t15.5 -40t-15 -47l-255 -381q-11 -16 7 -16h72q57 0 57 -53q0 -35 -28 -66t-70 -31zM352 250q-2 0 -6.5 -2t-5.5 -2q-1 1 -1 2q0 5 217 331v-1
q26 39 26 79t-26 66.5t-70 26.5h-200q-70 0 -118 -54q-44 -49 -44 -107q0 -39 24 -64t71 -25q2 0 6.5 2t5.5 2q1 -1 1 -2q0 -5 -217 -331q-26 -38 -26 -78t26 -66.5t70 -26.5h200q70 0 118 54q44 49 44 107q0 39 -24 64t-71 25z" />
    <glyph glyph-name="bracketleft" unicode="[" horiz-adv-x="431" 
d="M248 50q-112 0 -138 13q-52 31 -52 95q0 20 6 42l93 350q26 94 120 137q31 12 74 14q-21 -1 72 -1q57 0 57 -53q0 -35 -28 -66t-70 -31h-24q-15 -1 -27 -6q-29 -13 -37 -44l-67 -250q-2 -8 -2 -15q0 -32 39 -35h25q57 0 57 -53q0 -35 -28 -66t-70 -31zM302 250
q-3 0 -10.5 -1.5t-10.5 -1.5q-5 1 -4 4l67 248v1h25q70 0 118 54q44 49 44 107q0 39 -24 64t-71 25h-82q-47 -2 -84 -17q-79 -30 -128 -108q-25 -40 -35 -75l-93 -350q-7 -24 -7 -55q0 -93 71 -128q34 -17 157 -17q70 0 118 54q44 49 44 107q0 39 -24 64t-71 25z" />
    <glyph glyph-name="bracketright" unicode="]" horiz-adv-x="437" 
d="M244 63q-31 -12 -74 -14q22 1 -72 1q-57 0 -57 53q0 35 28 66t70 31h24q15 1 27 6q29 13 37 44l67 250q2 8 2 15q0 32 -39 35h-25q-57 0 -57 53q0 36 28 66.5t70 30.5q114 -1 138 -13q52 -31 52 -95q0 -20 -6 -42l-93 -350q-26 -94 -120 -137zM507 550q7 24 7 55
q0 93 -71 128q-29 14 -75 17h-82q-70 0 -118 -54q-44 -49 -44 -107q0 -39 24 -64t71 -25q2 0 10 1.5t11 1.5q5 -1 4 -4l-67 -248v-1h-25q-70 0 -118 -53q-44 -48 -44 -107q0 -39 24 -64t71 -26q76 -1 84 -1q42 2 82 18q79 30 128 108q25 40 35 75z" />
    <glyph glyph-name="asciicircum" unicode="^" horiz-adv-x="486" 
d="M494 500q-10 -35 -37.5 -54.5t-57.5 -19.5q-58 0 -58 52q0 7 3 20.5t3 20.5q0 23 -17 23q-25 0 -36 -42q-10 -35 -37.5 -54.5t-57.5 -19.5q-58 0 -58 52q0 10 3 22l13 50q38 139 190 150h50q117 -7 117 -103q0 -21 -7 -47zM411 750h-50q-100 0 -174 -70q-60 -57 -80 -130
l-13 -50q-5 -18 -5 -34q0 -42 28 -66.5t69 -24.5q62 0 113 51q24 -51 86 -51q50 0 95 34q49 35 64 91l13 50q7 27 7 54q0 61 -33 100q-40 46 -120 46z" />
    <glyph glyph-name="underscore" unicode="_" horiz-adv-x="531" 
d="M348 50h-250q-57 0 -57 53q0 35 28 66t70 31h250q57 0 57 -53q0 -35 -28 -66t-70 -31zM402 250h-250q-70 0 -118 -54q-44 -49 -44 -107q0 -39 24 -64t71 -25h250q70 0 118 54q44 49 44 107q0 39 -24 64t-71 25z" />
    <glyph glyph-name="grave" unicode="`" horiz-adv-x="361" 
d="M156 547q-3 -14 -3 -27q0 -43 34 -69t78 -26q84 0 104 75q2 10 2 20q0 47 -47 54q-8 2 -8 13l10 38q3 12 3 22q0 52 -58 52q-30 0 -56 -18q-28 -21 -38 -56zM373 615q50 -24 50 -83q0 -16 -4 -32q-16 -61 -66 -94q-44 -30 -101 -30q-62 0 -105 33q-46 37 -46 97
q0 19 5 39v2l21 78q16 57 64 92q45 32 95 32q51 0 76 -33q29 -36 11 -101z" />
    <glyph glyph-name="t" unicode="t" horiz-adv-x="550" 
d="M513 263q0 -18 -13 -30.5t-31 -12.5t-30.5 12.5t-12.5 30.5q0 16 11 29l-5 18l-6 -1q-3 -1 -4 2l-20 85l-5 10l14 -75l1 -16v-29q0 -8 -8 -10v-273q0 -3 -3 -3h-115q-4 0 -4 3v154h-16v-154q0 -3 -4 -3h-113q-3 0 -3 3v273q-8 2 -8 10v29l1 16l14 75l-4 -9l-21 -86
q-1 -3 -4 -2l-6 1l-5 -18q11 -13 11 -29q0 -21 -17 -34t-37 -8q-33 9 -33 42q0 31 30 41l5 18l-8 2q-2 1 -2 3l1 39q0 33 61 108q11 14 12 15q16 20 32 18h3l1 4q2 10 12 10l38 1q-14 5 -25 15q-15 16 -26 44.5t-11 53.5q0 47 33.5 81t81.5 34t81.5 -34t33.5 -81
q0 -25 -11 -53.5t-26 -44.5q-11 -10 -25 -15l38 -1q10 0 12 -10l1 -4h3q16 2 32 -18l12 -15q32 -39 42 -55q19 -30 19 -53l1 -39q0 -2 -2 -3l-8 -2l5 -18q30 -10 30 -41zM205 515v-49h140v49h-140zM182 691q6 4 13 5q25 -2 27 -2q9 1 30 16l7 5q16 11 32 0l7 -5
q10 -7 29 -16l29 2q6 -1 12 -5q-32 53 -93 53t-93 -53zM172 670v-1q4 -1 15 -3h6q51 -8 82 -8t82 8h6l15 3v1q-6 16 -22 20l-29 -2q-11 2 -32 17l-7 5q-13 9 -26 0l-7 -5q-10 -8 -33 -18q-25 3 -27 3q-17 -3 -23 -20zM358 659q-52 -7 -83 -7t-83 7q1 -5 10 -74q1 -10 8 -18
l6 -7q6 -7 14 -4l33 10q5 2 12 2t12 -2l33 -10q8 -3 14 4l6 7q7 8 8 18zM202 542q20 -20 68 -20h10q48 0 68 20q36 36 36 93q0 13 -4 28q-7 -1 -16 -3v0l-9 -76q-2 -12 -10 -21l-6 -7q-9 -10 -21 -6l-33 10q-10 4 -20 0l-33 -10q-12 -4 -21 6l-6 7q-8 9 -10 21l-9 76
q-9 1 -16 3q-4 -14 -4 -28q0 -57 36 -93zM118 263q0 11 -5.5 19.5l-5.5 8.5v1l5 20l-34 9l-5 -20l-2 -2q-27 -8 -27 -36q0 -15 11 -26t26 -11t26 11t11 26zM143 399l14 30l13 71q-1 1 -3 1q-12 2 -26 -16l-12 -15q-30 -37 -41 -54q-18 -29 -19 -50q-1 -30 -1 -36l55 -15
q11 48 20 84zM259 6v31q0 31 -48 31q-25 0 -42 -9t-17 -22v-31h107zM259 57v100h-107v-103q17 20 59 20q35 0 48 -17zM259 163v74h-107v-74h107zM398 6v31q0 31 -59 31q-50 0 -50 -31v-31h109zM398 54v103h-109v-101q13 18 50 18q42 0 59 -20zM398 163v74h-109v-74h109z
M398 244v30h-246v-30h110q2 0 4 -4v-77h16v77q0 4 4 4h112zM404 330l-32 180q-1 5 -6 5h-15v-52q0 -3 -3 -3h-146q-3 0 -3 3v52h-15q-5 0 -6 -5l-34 -195v-29q0 -5 5 -5h252q5 0 5 5v29zM436 318l46 12q0 6 -1 36.5t-60 103.5q-11 14 -12 15q-14 18 -26 16q-2 0 -3 -1
q3 -18 13 -71l15 -31l19 -83l3 1zM479 227q27 8 27 36t-27 36q-2 1 -2 2l-5 20l-34 -9l5 -21l-5.5 -8.5t-5.5 -19.5q0 -18 14.5 -29t32.5 -7zM88 289q13 -3 19 -33q-7 -26 -33 -19t-19 33t33 19zM101 263q0 16 -15 20q-20 5 -25 -14q-5 -20 15 -25q9 -3 17 3t8 16zM495 270
q7 -26 -19 -33t-33 19t19 33t33 -19zM489 269q-5 19 -25 14q-15 -4 -15 -20q0 -10 8 -16t17 -3q20 5 15 25zM296 587q4 2 7 -2q2 -4 -2 -7q-11 -6 -26 -6t-26 6q-4 3 -2 7q3 4 7 2q9 -6 21 -6t21 6zM256 617q0 -10 -10 -10q-9 0 -9 10q0 9 9 9q10 0 10 -9zM262 632
q-6 6 -16 6q-9 0 -16 -6q-2 -2 -4 0t0 4q9 8 20 8q12 0 20 -8q2 -2 0 -4t-4 0zM304 626q9 0 9 -9q0 -10 -9 -10q-10 0 -10 10q0 9 10 9zM288 632q-2 -2 -4 0t0 4q8 8 20 8q11 0 20 -8q2 -2 0 -4t-4 0q-7 6 -16 6q-10 0 -16 -6zM293 529q-3 1 -2 3l4 16q1 2 3 1q2 0 2 -3
l-4 -15q-1 -3 -3 -2zM275 554q2 -1 2 -3v-20q0 -2 -2 -2t-2 2v20q0 3 2 3zM252 549q2 1 3 -1l4 -16q1 -2 -2 -3q-2 -1 -3 2l-4 15q0 3 2 3zM236 415v17h78v-17h-29v-79h-20v79h-29z" />
    <glyph glyph-name="v" unicode="v" horiz-adv-x="1000" 
 />
    <glyph glyph-name="asciitilde" unicode="~" horiz-adv-x="582" 
d="M587 475q-38 -139 -190 -150h-100q-15 -1 -27 -6q-28 -13 -37 -44q-9 -35 -36.5 -54.5t-58.5 -19.5q-58 0 -58 52q0 10 3 22l14 50q37 139 190 150h99q15 1 27 6q29 13 37 44q10 35 39 56q26 18 56 18q58 0 58 -52q0 -10 -3 -22zM400 525l1 2q-1 -2 -2 -2h-99
q-99 0 -174 -70q-60 -57 -79 -130l-14 -50q-5 -19 -5 -37q0 -41 29 -65q26 -22 68 -22q51 0 94 31q49 35 64 93v-2q0 2 1 2h99q100 0 174 70q60 57 80 130l13 50q5 19 5 37q0 41 -27.5 64t-69.5 23q-50 0 -94 -31q-48 -35 -64 -93z" />
  </font>
</defs>
</svg>
